<?xml version="1.0" encoding="utf-8"?>
<!-- Generator: Adobe Illustrator 21.0.0, SVG Export Plug-In . SVG Version: 6.00 Build 0)  -->
<svg version="1.1" id="图层_1" xmlns="http://www.w3.org/2000/svg" xmlns:xlink="http://www.w3.org/1999/xlink" x="0px" y="0px"
	 viewBox="0 0 612 612" enable-background="new 0 0 612 612" xml:space="preserve">
<path d="M345.8,309.9L532,123.8c10.4-10.5,10.4-27.4,0-37.8c-10.5-10.5-27.4-10.5-37.8,0L308,272.1L121.8,85.9
	c-10.5-10.5-27.4-10.5-37.8,0s-10.4,27.4,0,37.8l186.2,186.2L84,496.2c-10.4,10.5-10.4,27.4,0,37.8c10.4,10.5,27.4,10.5,37.8,0
	L308,347.8L494.2,534c10.5,10.5,27.4,10.5,37.8,0c10.4-10.5,10.4-27.4,0-37.8L345.8,309.9z"/>
</svg>
