<?xml version="1.0" encoding="utf-8"?>
<!-- Generator: Adobe Illustrator 21.0.0, SVG Export Plug-In . SVG Version: 6.00 Build 0)  -->
<svg version="1.1" id="图层_1" xmlns="http://www.w3.org/2000/svg" xmlns:xlink="http://www.w3.org/1999/xlink" x="0px" y="0px"
	 viewBox="0 0 63.2 100" enable-background="new 0 0 63.2 100" xml:space="preserve">
<title>Combined Shape</title>
<desc>Created with Sketch.</desc>
<path fill="#0C0A0A" d="M31.6,100c-2.9,0-5.3-2.4-5.3-5.3V84.2H15.8c-2.9,0-5.3-2.4-5.3-5.3s2.4-5.3,5.3-5.3h10.5l0-11
	C11.1,60.2,0,47.1,0,31.6C0,14.2,14.2,0,31.6,0C49,0,63.2,14.2,63.2,31.6c0,15.5-11.1,28.6-26.3,31.1v11h10.5c2.9,0,5.3,2.4,5.3,5.3
	s-2.4,5.3-5.3,5.3H36.8v10.5C36.8,97.6,34.5,100,31.6,100z M31.6,8.8C19,8.8,8.8,19,8.8,31.6c0,11.2,8.8,23.1,22.8,23.1
	c15.3,0,22.8-11.9,22.8-23.1C54.4,19,44.2,8.8,31.6,8.8z"/>
</svg>
