<?xml version="1.0" encoding="utf-8"?>
<!-- Generator: Adobe Illustrator 21.0.0, SVG Export Plug-In . SVG Version: 6.00 Build 0)  -->
<svg version="1.1" id="图层_1" xmlns="http://www.w3.org/2000/svg" xmlns:xlink="http://www.w3.org/1999/xlink" x="0px" y="0px"
	 viewBox="0 0 62.7 100" enable-background="new 0 0 62.7 100" xml:space="preserve">
<title>Combined Shape</title>
<desc>Created with Sketch.</desc>
<path d="M31.4,100C14.1,100,0,85.9,0,68.6c0-15.4,11-28.4,26.1-30.9V17.9l-4.6,4.5c-2,2-5.3,2-7.4,0c-2-2.5-2-4.9,0-7.4L27.4,1.8
	c0.2-0.2,1.7-1.9,4.2-1.8c2.1,0.1,4,1.8,4.2,2.1c0,0,14.2,13.1,14.5,13.4c1.7,2,1.1,4.9-0.7,6.6c-2.1,2-5.5,1.9-7.6,0l-5.4-4.5
	l0,20.1c15.3,2.7,26.1,15.6,26.1,30.9C62.7,85.9,48.7,100,31.4,100z M31,46.2C17.5,46.2,8.8,58,8.8,69.1c0,12.5,10.2,22.7,22.7,22.7
	c12.5,0,22.7-10.2,22.7-22.7C54.1,58,45.5,46.2,31,46.2z M20.3,22.5L20.3,22.5C20.3,22.5,20.3,22.5,20.3,22.5z M15.4,17.6
	C15.4,17.6,15.4,17.6,15.4,17.6L15.4,17.6z M47.8,17L47.8,17C47.8,17,47.8,17,47.8,17z"/>
</svg>
