<?xml version="1.0" encoding="utf-8"?>
<!-- Generator: Adobe Illustrator 21.0.0, SVG Export Plug-In . SVG Version: 6.00 Build 0)  -->
<svg version="1.1" id="图层_1" xmlns="http://www.w3.org/2000/svg" xmlns:xlink="http://www.w3.org/1999/xlink" x="0px" y="0px"
	 viewBox="0 0 100 100" enable-background="new 0 0 100 100" xml:space="preserve">
<path d="M67.3,34.1c1.2,0,2.2,0,3.3,0.2C67.6,20.4,52.7,9.8,35.7,9.8C16.7,9.8,1,23,1,39.6c0,9.6,5.3,17.4,13.9,23.5l-3.5,10.4
	l12.2-6.1c4.3,0.8,7.8,1.8,12.2,1.8c1.2,0,2.2,0,3.3-0.2c-0.6-2.4-1-4.7-1-7.3C37.8,46.5,50.8,34.1,67.3,34.1z M48.6,24.7
	c2.5,0,4.3,1.8,4.3,4.3s-1.8,4.3-4.3,4.3c-2.5,0-5.3-1.8-5.3-4.3C43.5,26.5,46.1,24.7,48.6,24.7z M24.3,33.3c-2.5,0-5.3-1.8-5.3-4.3
	s2.5-4.3,5.3-4.3s4.3,1.8,4.3,4.3C28.8,31.8,27.1,33.3,24.3,33.3z M99,61.4c0-13.9-13.9-25.3-29.4-25.3C53.1,36.1,40,47.4,40,61.4
	s12.9,25.3,29.6,25.3c3.5,0,6.9-0.8,10.4-1.8l9.6,5.3l-2.7-8.8C93.9,76.1,99,69.2,99,61.4z M61,59.6c-2.7,0-4.9-2.2-4.9-5.1
	c0-2.7,2.2-5.1,4.9-5.1c2.7,0,4.9,2.2,4.9,5.1C65.9,57.2,63.7,59.6,61,59.6z M80.6,59.8c-2.7,0-4.9-2.2-4.9-4.9s2.2-4.9,4.9-4.9
	c2.7,0,4.9,2.2,4.9,4.9C85.5,57.4,83.1,59.8,80.6,59.8z"/>
</svg>
