<?xml version="1.0" encoding="utf-8"?>
<!-- Generator: Adobe Illustrator 21.0.0, SVG Export Plug-In . SVG Version: 6.00 Build 0)  -->
<svg version="1.1" id="图层_1" xmlns="http://www.w3.org/2000/svg" xmlns:xlink="http://www.w3.org/1999/xlink" x="0px" y="0px"
	 viewBox="0 0 100 100" enable-background="new 0 0 100 100" xml:space="preserve">
<g>
	<path fill="#040000" d="M74.6,47.2c-1.4-0.4-2.3-0.7-1.6-2.5c1.6-3.9,1.7-7.3,0-9.8c-3.2-4.5-11.9-4.3-21.9-0.1
		c0,0-3.1,1.4-2.3-1.1c1.5-4.9,1.3-9.1-1.1-11.5c-5.4-5.4-19.8,0.2-32.2,12.5C6.4,44.1,1,53.9,1,62.3c0,16.2,20.8,26.1,41.1,26.1
		c26.7,0,44.4-15.5,44.4-27.8C86.5,53.2,80.2,49,74.6,47.2z M42.2,82.6c-16.2,1.6-30.2-5.7-31.3-16.4C9.8,55.5,22.1,45.6,38.4,44
		c16.2-1.6,30.2,5.7,31.3,16.4C70.7,71,58.4,81,42.2,82.6z"/>
	<path fill="#040000" d="M92.3,17.6c-6.4-7.1-15.9-9.9-24.7-8h0c-2,0.4-3.3,2.4-2.9,4.5c0.4,2,2.4,3.3,4.5,2.9
		c6.2-1.3,13,0.6,17.6,5.7c4.6,5.1,5.8,12,3.9,18l0,0c-0.6,2,0.4,4.1,2.4,4.7c2,0.6,4.1-0.4,4.7-2.4c0,0,0,0,0,0
		C100.5,34.4,98.8,24.7,92.3,17.6z"/>
	<path fill="#040000" d="M70.4,22.6c-1.7,0.4-2.9,2.1-2.5,3.8c0.4,1.7,2.1,2.9,3.8,2.5v0c2.1-0.4,4.4,0.2,5.9,1.9
		c1.5,1.7,1.9,4,1.3,6h0c-0.5,1.7,0.4,3.5,2.1,4.1c1.7,0.5,3.5-0.4,4.1-2.1c1.3-4.2,0.5-8.9-2.6-12.4h0C79.3,23,74.7,21.7,70.4,22.6
		z"/>
	<path fill="#040000" d="M43.8,52.2c-7.7-2-16.4,1.8-19.8,8.6c-3.4,6.9-0.1,14.6,7.7,17.2c8.1,2.6,17.6-1.4,20.9-8.9
		C55.9,61.8,51.8,54.3,43.8,52.2z M37.9,69.9c-1.6,2.5-4.9,3.6-7.5,2.4c-2.5-1.1-3.2-4-1.7-6.5c1.5-2.4,4.8-3.5,7.3-2.5
		C38.6,64.5,39.4,67.4,37.9,69.9z M43.1,63.3c-0.6,1-1.8,1.4-2.8,1c-1-0.4-1.3-1.5-0.7-2.4c0.6-0.9,1.8-1.4,2.7-1
		C43.3,61.2,43.6,62.3,43.1,63.3z"/>
</g>
</svg>
